 <svg fill="currentColor" xmlns="http://www.w3.org/2000/svg" viewBox="0 0 512.001 512">
  <path d="M255.863 168.7c-48.047 0-87.14 39.093-87.14 87.144 0 48.047 39.093 87.14 87.14 87.14 48.051 0 87.145-39.093 87.145-87.14 0-48.051-39.094-87.145-87.145-87.145zm0 0"/>
  <path d="M497.004 240.844h-55.055c-7.27-91.004-80.082-163.82-171.09-171.086V14.996C270.86 6.715 264.145 0 255.863 0s-14.996 6.715-14.996 14.996v54.762c-91.008 7.265-163.82 80.082-171.09 171.086h-54.78c-8.282 0-14.997 6.715-14.997 15 0 8.281 6.715 14.996 14.996 14.996h54.781c7.27 91.004 80.082 163.82 171.09 171.09v54.757c0 8.282 6.715 14.997 14.996 14.997 8.285 0 14.996-6.715 14.996-14.997V441.93c91.008-7.27 163.825-80.086 171.09-171.09h55.055c8.281 0 14.996-6.715 14.996-14.996 0-8.285-6.715-15-14.996-15zm-241.14 171.695c-86.403 0-156.696-70.297-156.696-156.695 0-86.403 70.293-156.7 156.695-156.7 86.403 0 156.696 70.297 156.696 156.7 0 86.398-70.293 156.695-156.696 156.695zm0 0"/>
</svg>